[Header]
FileType HTR
DataType HTRS
FileVersion 1
NumSegments 36
NumFrames 4
DataFrameRate 120
EulerRotationOrder ZYX
CalibrationUnits mm
RotationUnits Degrees
GlobalAxisofGravity Y
BoneLengthAxis Y
ScaleFactor 1.0
[SegmentNames&Hierarchy]
Hips	GLOBAL
Spine	Hips
Spine1	Spine
Spine2	Spine1
Spine3	Spine2
Neck	Spine3
Head	Neck
HeadEnd	Head
RightShoulder	Spine3
RightArm	RightShoulder
RightForeArm	RightArm
RightForeArmRoll	RightForeArm
RightHand	RightForeArmRoll
RightHandEnd	RightHand
R_FingersEnd	RightHandEnd
RightHandThumb1	RightHand
RightHandThumb2	RightHandThumb1
LeftShoulder	Spine3
LeftArm	LeftShoulder
LeftForeArm	LeftArm
LeftForeArmRoll	LeftForeArm
LeftHand	LeftForeArmRoll
LeftHandEnd	LeftHand
L_FingersEnd	LeftHandEnd
LeftHandThumb1	LeftHand
LeftHandThumb2	LeftHandThumb1
RightUpLeg	Hips
RightLeg	RightUpLeg
RightFoot	RightLeg
RightToeBase	RightFoot
RightToeBaseEnd	RightToeBase
LeftUpLeg	Hips
LeftLeg	LeftUpLeg
LeftFoot	LeftLeg
LeftToeBase	LeftFoot
LeftToeBaseEnd	LeftToeBase
[BasePosition]
Hips	0	0	0	0	0	0	1
Spine	0	0	0	-10	-0	0	1
Spine1	0	0	0	5	0	0	1
Spine2	0	0	0	5	0	0	1
Spine3	0	0	0	0	0	0	1
Neck	0	0	0	10	0	0	1
Head	0	0	0	-10	-0	0	1
HeadEnd	0	0	0	0	0	0	1
RightShoulder	0	0	0	-180	-0	-180	1
RightArm	0	0	0	0	0	0	1
RightForeArm	0	0	0	0	0	0	1
RightForeArmRoll	0	0	0	0	0	0	1
RightHand	0	0	0	0	0	0	1
RightHandEnd	0	0	0	-90	-0	0	1
R_FingersEnd	0	0	0	0	0	0	1
RightHandThumb1	0	0	0	170	-0	-15	1
RightHandThumb2	0	0	0	0	0	0	1
LeftShoulder	0	0	0	0	0	0	1
LeftArm	0	0	0	0	0	0	1
LeftForeArm	0	0	0	0	0	0	1
LeftForeArmRoll	0	0	0	0	0	0	1
LeftHand	0	0	0	0	0	0	1
LeftHandEnd	0	0	0	90	0	0	1
L_FingersEnd	0	0	0	0	0	0	1
LeftHandThumb1	0	0	0	170	-0	-15	1
LeftHandThumb2	0	0	0	0	0	0	1
RightUpLeg	0	0	0	-0	90	0	1
RightLeg	0	0	0	0	0	0	1
RightFoot	0	0	0	0	-0	-70	1
RightToeBase	0	0	0	0	-0	-20	1
RightToeBaseEnd	0	0	0	0	0	0	1
LeftUpLeg	0	0	0	-0	90	0	1
LeftLeg	0	0	0	0	0	0	1
LeftFoot	0	0	0	0	-0	-70	1
LeftToeBase	0	0	0	0	-0	-20	1
LeftToeBaseEnd	0	0	0	0	0	0	1
[Hips]
16	-5.050575256	970.5825195	-19.49498367	-89.7647171	-0.2965136766	0.4107896686	1.0
17	-5.193806171	970.5510254	-19.62085152	-89.72307587	-0.293209523	0.4066973031	1.0
18	-5.442642212	970.5108643	-19.87857056	-89.65179443	-0.2759861052	0.3785921931	1.0
19	-5.730679035	970.4702148	-20.18596458	-89.55908203	-0.2487672567	0.333640486	1.0
[Spine]
16	0	44.87670517	67.31505585	-0.284570992	0.3638417721	0.07692535967	1.0
17	0	44.87670517	67.31505585	-0.2886371613	0.3739233613	0.07761263102	1.0
18	0	44.87670517	67.31505585	-0.2917641401	0.387737602	0.07849065959	1.0
19	0	44.87670517	67.31505585	-0.2946689725	0.4047811627	0.07953304797	1.0
[Spine1]
16	0	0	89.75341034	-0.7031674981	0.03878153488	0.005605596583	1.0
17	0	0	89.75341034	-0.7089066505	0.0410078764	0.00513714971	1.0
18	0	0	89.75341034	-0.7121754885	0.04203183204	0.003984426148	1.0
19	0	0	89.75341034	-0.7146725655	0.04259888828	0.002337571466	1.0
[Spine2]
16	0	0	89.75341034	1.658041835	0.6078226566	0.461560607	1.0
17	0	0	89.75341034	1.650082469	0.5889648199	0.4519559145	1.0
18	0	0	89.75341034	1.615834832	0.5563684702	0.4356668591	1.0
19	0	0	89.75341034	1.564901352	0.5134339333	0.4137856066	1.0
[Spine3]
16	0	0	89.75341034	0.1732724607	-0.3854476213	-0.067854397	1.0
17	0	0	89.75341034	0.172585994	-0.3876063228	-0.06545527279	1.0
18	0	0	89.75341034	0.1679553092	-0.393593967	-0.06263383478	1.0
19	0	0	89.75341034	0.1607943773	-0.4026589394	-0.05954196304	1.0
[Neck]
16	0	-33.65752792	235.6027069	-1.216105938	0.07515264302	-0.1443433166	1.0
17	0	-33.65752792	235.6027069	-1.225138903	0.1040227339	-0.1409068108	1.0
18	0	-33.65752792	235.6027069	-1.239114046	0.115095228	-0.1372514069	1.0
19	0	-33.65752792	235.6027069	-1.257603645	0.1148364693	-0.1337030679	1.0
[Head]
16	0	0	123.4109421	-1.022115111	-0.2504484951	-1.101956129	1.0
17	0	0	123.4109421	-1.035215259	-0.2669635713	-1.080154181	1.0
18	0	0	123.4109421	-1.038948178	-0.2721691132	-1.059000731	1.0
19	0	0	123.4109421	-1.037809372	-0.2706048489	-1.037632465	1.0
[HeadEnd]
16	0	0	145.2883301	0	0	0	1.0
17	0	0	145.2883301	0	0	0	1.0
18	0	0	145.2883301	0	0	0	1.0
19	0	0	145.2883301	0	0	0	1.0
[RightShoulder]
16	-30.74827576	-51.24713135	166.0407104	-4.65241766	-5.820459366	0.8801794648	1.0
17	-30.74827576	-51.24713135	166.0407104	-4.659086227	-5.82703495	0.8789400458	1.0
18	-30.74827576	-51.24713135	166.0407104	-4.647912025	-5.837566376	0.8706446886	1.0
19	-30.74827576	-51.24713135	166.0407104	-4.628764153	-5.855502129	0.8583186865	1.0
[RightArm]
16	152.7164459	0	0	-25.41942978	-69.1046524	4.900182724	1.0
17	152.7164459	0	0	-25.40423965	-69.15812683	4.844083309	1.0
18	152.7164459	0	0	-25.33738136	-69.14048767	4.801640987	1.0
19	152.7164459	0	0	-25.27196884	-69.12234497	4.786958218	1.0
[RightForeArm]
16	297.8946228	0	0	-1.733774183e-018	-5.07584597e-019	-31.0851593	1.0
17	297.8946228	0	0	0	0	-31.12421417	1.0
18	297.8946228	0	0	0	0	-31.13918686	1.0
19	297.8946228	0	0	0	0	-31.1619339	1.0
[RightForeArmRoll]
16	122.9768982	0	0	4.540937424	0	0	1.0
17	122.9768982	0	0	4.525503159	0	0	1.0
18	122.9768982	0	0	4.563169003	0	0	1.0
19	122.9768982	0	0	4.639727592	0	0	1.0
[RightHand]
16	127.1009369	0	0	0.0002401400852	8.120214462	-3.077752829	1.0
17	127.1009369	0	0	-3.289937013e-006	8.13952446	-3.068864822	1.0
18	127.1009369	0	0	2.340162382e-006	8.11771965	-3.079456806	1.0
19	127.1009369	0	0	2.551669695e-006	8.073316574	-3.104925632	1.0
[RightHandEnd]
16	72.05677795	0	0	0	0	0	1.0
17	72.05677795	0	0	0	0	0	1.0
18	72.05677795	0	0	0	0	0	1.0
19	72.05677795	0	0	0	0	0	1.0
[R_FingersEnd]
16	72.05677795	0	0	0	0	0	1.0
17	72.05677795	0	0	0	0	0	1.0
18	72.05677795	0	0	0	0	0	1.0
19	72.05677795	0	0	0	0	0	1.0
[RightHandThumb1]
16	28.82271004	-48.03784943	19.2151413	0	0	0	1.0
17	28.82271004	-48.03784943	19.2151413	0	0	0	1.0
18	28.82271004	-48.03784943	19.2151413	0	0	0	1.0
19	28.82271004	-48.03784943	19.2151413	0	0	0	1.0
[RightHandThumb2]
16	72.05677795	0	0	0	0	0	1.0
17	72.05677795	0	0	0	0	0	1.0
18	72.05677795	0	0	0	0	0	1.0
19	72.05677795	0	0	0	0	0	1.0
[LeftShoulder]
16	30.74827576	-51.24713135	166.0407104	5.433853149	5.906853199	3.082609177	1.0
17	30.74827576	-51.24713135	166.0407104	5.421083927	5.9262743	3.093998909	1.0
18	30.74827576	-51.24713135	166.0407104	5.430154324	5.945162296	3.096601486	1.0
19	30.74827576	-51.24713135	166.0407104	5.458937645	5.96761322	3.095769882	1.0
[LeftArm]
16	152.7164459	0	0	4.544408321	68.97803497	-33.73095322	1.0
17	152.7164459	0	0	4.406776428	68.99303436	-33.95647049	1.0
18	152.7164459	0	0	4.33458662	68.95088196	-34.00249863	1.0
19	152.7164459	0	0	4.206423283	68.88597107	-34.08874893	1.0
[LeftForeArm]
16	297.8946228	0	0	-9.290079935e-019	1.184476625e-019	-19.19017792	1.0
17	297.8946228	0	0	0	0	-19.21221161	1.0
18	297.8946228	0	0	0	0	-19.21744537	1.0
19	297.8946228	0	0	0	0	-19.2263813	1.0
[LeftForeArmRoll]
16	122.9768982	0	0	-5.281934738	0	0	1.0
17	122.9768982	0	0	-5.448308468	0	0	1.0
18	122.9768982	0	0	-5.598109245	0	0	1.0
19	122.9768982	0	0	-5.750183105	0	0	1.0
[LeftHand]
16	127.1009369	0	0	0.0003108971869	-21.53059387	0.5432634354	1.0
17	127.1009369	0	0	0.0002568527707	-21.58818054	0.4596507549	1.0
18	127.1009369	0	0	0.0002602903696	-21.55329323	0.3899333477	1.0
19	127.1009369	0	0	0.0001906608231	-21.47255898	0.3248210549	1.0
[LeftHandEnd]
16	72.05677795	0	0	0	0	0	1.0
17	72.05677795	0	0	0	0	0	1.0
18	72.05677795	0	0	0	0	0	1.0
19	72.05677795	0	0	0	0	0	1.0
[L_FingersEnd]
16	72.05677795	0	0	0	0	0	1.0
17	72.05677795	0	0	0	0	0	1.0
18	72.05677795	0	0	0	0	0	1.0
19	72.05677795	0	0	0	0	0	1.0
[LeftHandThumb1]
16	28.82271004	-48.03784943	-19.2151413	0	0	0	1.0
17	28.82271004	-48.03784943	-19.2151413	0	0	0	1.0
18	28.82271004	-48.03784943	-19.2151413	0	0	0	1.0
19	28.82271004	-48.03784943	-19.2151413	0	0	0	1.0
[LeftHandThumb2]
16	72.05677795	0	0	0	0	0	1.0
17	72.05677795	0	0	0	0	0	1.0
18	72.05677795	0	0	0	0	0	1.0
19	72.05677795	0	0	0	0	0	1.0
[RightUpLeg]
16	-91.21989441	0	-26.64850616	10.09278107	4.760020256	-0.1469290257	1.0
17	-91.21989441	0	-26.64850616	10.06361961	4.754785061	-0.1926969886	1.0
18	-91.21989441	0	-26.64850616	9.967899323	4.69892025	-0.2849932611	1.0
19	-91.21989441	0	-26.64850616	9.832177162	4.610524654	-0.4096039832	1.0
[RightLeg]
16	402.8824463	0	0	0	0	15.0401516	1.0
17	402.8824463	0	0	0	0	15.05870152	1.0
18	402.8824463	0	0	0	0	15.06948185	1.0
19	402.8824463	0	0	0	0	15.08594131	1.0
[RightFoot]
16	435.9781189	0	0	4.292862892	-2.911223888	-15.17264843	1.0
17	435.9781189	0	0	4.299921513	-2.881086349	-15.18848228	1.0
18	435.9781189	0	0	4.30514431	-2.771896362	-15.18204021	1.0
19	435.9781189	0	0	4.313028812	-2.607339382	-15.17158222	1.0
[RightToeBase]
16	183.1846619	0	0	0	0	0.9072561264	1.0
17	183.1846619	0	0	0	0	0.9017830491	1.0
18	183.1846619	0	0	0	0	0.8975527287	1.0
19	183.1846619	0	0	0	0	0.8946659565	1.0
[RightToeBaseEnd]
16	73.79586792	0	0	0	0	0	1.0
17	73.79586792	0	0	0	0	0	1.0
18	73.79586792	0	0	0	0	0	1.0
19	73.79586792	0	0	0	0	0	1.0
[LeftUpLeg]
16	91.21989441	0	-26.64850616	1.668242216	-4.670463562	1.654520273	1.0
17	91.21989441	0	-26.64850616	1.621481895	-4.688789368	1.586605072	1.0
18	91.21989441	0	-26.64850616	1.524468422	-4.743815899	1.444622159	1.0
19	91.21989441	0	-26.64850616	1.391147852	-4.829099655	1.249904871	1.0
[LeftLeg]
16	402.8824463	0	0	0	0	10.48092461	1.0
17	402.8824463	0	0	0	0	10.53779602	1.0
18	402.8824463	0	0	0	0	10.63745308	1.0
19	402.8824463	0	0	0	0	10.77709198	1.0
[LeftFoot]
16	435.9781189	0	0	-8.065763474	-1.641187906	-12.56996918	1.0
17	435.9781189	0	0	-8.070634842	-1.589569926	-12.59748363	1.0
18	435.9781189	0	0	-8.076553345	-1.461625457	-12.62735748	1.0
19	435.9781189	0	0	-8.088365555	-1.279427767	-12.66915607	1.0
[LeftToeBase]
16	183.1846619	0	0	0	0	0.8279216886	1.0
17	183.1846619	0	0	0	0	0.8386281133	1.0
18	183.1846619	0	0	0	0	0.8446626067	1.0
19	183.1846619	0	0	0	0	0.8483771086	1.0
[LeftToeBaseEnd]
16	73.79586792	0	0	0	0	0	1.0
17	73.79586792	0	0	0	0	0	1.0
18	73.79586792	0	0	0	0	0	1.0
19	73.79586792	0	0	0	0	0	1.0
[EndOfFile]
